<svg width="235" height="202" viewBox="0 0 235 202" fill="none" xmlns="http://www.w3.org/2000/svg"><g clip-path="url(#clip0)"><path d="M86.8825 98.6885C95.1152 124.758 122.922 139.217 148.991 130.984C175.06 122.751 189.519 94.9442 181.287 68.8752L86.8825 98.6885ZM75.4082 40.383C78.3028 71.4509 81.841 82.7246 86.8825 98.6885L181.287 68.8752C179.019 61.6957 178.043 58.6271 177.113 54.3191C176.18 49.9933 175.127 43.4999 173.981 31.1988L75.4082 40.383Z" fill="#58CC02"/><path d="M51.9965 40.8082L123.341 61.8213C127.102 62.9758 128.665 67.4595 126.447 70.6984C115.641 86.4517 95.5293 93.5668 76.6954 88.085C57.8614 82.6033 44.9182 65.6795 44.4625 46.5529C44.3433 42.6012 48.1454 39.6737 51.9965 40.8082Z" fill="#58CC02"/><path d="M222.207 77.8174L149.287 63.1779C145.351 62.3879 141.879 65.6272 142.273 69.5968C144.497 88.5705 158.979 104.235 178.199 108.157C197.418 112.08 216.755 103.133 226.067 86.421C228.144 82.969 226.143 78.6074 222.207 77.8174Z" fill="#58CC02"/><path fill-rule="evenodd" clip-rule="evenodd" d="M96.7925 18.2225C110.145 22.5884 117.221 24.6185 122.013 24.2206C126.805 23.8228 137.245 20.4313 149.511 13.9386C157.598 9.64852 167.695 12.8001 171.985 20.8875C172.983 22.846 173.627 25.0193 173.811 27.231L176.433 58.8121C178.697 86.0889 158.417 110.041 131.14 112.306C103.856 114.478 79.911 94.2902 77.6465 67.0134L75.017 35.3401C74.2596 26.2171 81.0197 18.2329 90.2348 17.4679C92.4465 17.2843 94.6042 17.5691 96.7925 18.2225Z" fill="#58CC02"/><path d="M126.266 106.948C126.299 106.275 125.723 105.84 125.093 105.988L112.937 108.827C112.306 108.974 112.003 109.71 112.31 110.208C113.952 112.768 117.206 114.097 120.358 113.361C123.509 112.625 125.928 109.971 126.266 106.948ZM146.253 101.045L134.097 103.884C133.467 104.032 133.164 104.767 133.47 105.265C135.113 107.825 138.367 109.154 141.518 108.418C144.67 107.682 147.088 105.028 147.427 102.005C147.481 101.423 146.883 100.898 146.253 101.045ZM138.004 113.702L125.848 116.541C125.218 116.688 124.915 117.424 125.221 117.922C126.864 120.482 130.118 121.811 133.27 121.075C136.421 120.339 138.84 117.685 139.178 114.662C139.322 114.059 138.725 113.534 138.004 113.702Z" fill="#89E219"/><path d="M97.6362 34.4494L114.584 48.6629C115.516 49.3812 115.328 50.8042 114.391 51.4852C109.552 54.4435 103.334 53.9443 98.9236 50.1336C94.5134 46.323 93.075 40.2623 95.1959 35.0455C95.7071 33.9535 96.7039 33.7311 97.6362 34.4494Z" fill="#89E219"/><path fill-rule="evenodd" clip-rule="evenodd" d="M112.118 46.931C117.826 51.7857 126.628 50.6444 131.417 44.4291C136.206 38.2138 134.708 76.4508 134.684 76.2674C134.684 76.2674 131.709 76.5597 125.796 77.4196C124.188 77.6281 121.31 78.0012 117.247 78.5279C110.059 54.2844 108.342 43.6909 112.118 46.931Z" fill="#89E219"/><path d="M89.9713 39.3587L106.564 53.7114C107.497 54.4297 107.308 55.8528 106.371 56.5338C101.533 59.492 95.3139 58.9928 90.9037 55.1822C86.4936 51.3716 85.0551 45.3108 87.2678 40.0821C87.6753 38.9104 89.039 38.6404 89.9713 39.3587Z" fill="#89E219"/><path fill-rule="evenodd" clip-rule="evenodd" d="M97.3411 42.9724L97.8913 42.9011C108.62 41.5102 118.37 49.1043 119.749 59.7416L121.08 70.0121C122.471 80.7411 114.877 90.4904 104.24 91.8694L103.689 91.9407C92.9604 93.3317 83.2111 85.7376 81.8321 75.1002L80.5125 64.9214C79.1216 54.1924 86.6121 44.3633 97.3411 42.9724Z" fill="#89E219"/><path d="M142.236 28.6672L129.748 46.6968C129.03 47.6291 129.575 48.9571 130.655 49.3765C136.088 51.0033 141.973 48.9349 145.266 44.1256C148.559 39.3164 148.404 33.0892 144.931 28.5976C144.25 27.6602 142.863 27.7468 142.236 28.6672Z" fill="#89E219"/><path d="M151.173 31.4248L138.696 49.5461C137.978 50.4784 138.523 51.8063 139.603 52.2258C145.036 53.8526 150.922 51.7841 154.214 46.9749C157.507 42.1656 157.352 35.9384 153.88 31.4468C153.278 30.4059 151.891 30.4925 151.173 31.4248Z" fill="#89E219"/><path fill-rule="evenodd" clip-rule="evenodd" d="M144.237 36.893L144.787 36.8217C155.516 35.4307 165.265 43.0248 166.644 53.6621L167.976 63.9327C169.367 74.6617 161.773 84.4109 151.135 85.79L150.677 85.8494C140.039 87.2284 130.302 79.726 128.831 69.1006L127.408 58.842C125.925 48.1249 133.416 38.2958 144.237 36.893C144.145 36.9049 144.237 36.893 144.237 36.893Z" fill="#89E219"/><path fill-rule="evenodd" clip-rule="evenodd" d="M97.2691 50.0676C104.697 49.1047 111.534 54.3723 112.497 61.8001L113.555 69.9615C114.518 77.3893 109.25 84.2261 101.822 85.1891C94.3945 86.152 87.5576 80.8844 86.5947 73.4566L85.5366 65.2952C84.5737 57.8674 89.8413 51.0306 97.2691 50.0676Z" fill="white"/><path fill-rule="evenodd" clip-rule="evenodd" d="M103.866 61.0779C107.351 60.6262 110.562 63.1004 111.014 66.585L111.918 73.5543C112.369 77.0389 109.895 80.2502 106.411 80.7019C102.926 81.1537 99.7146 78.6795 99.2629 75.1948L98.3593 68.2256C97.9076 64.7409 100.382 61.5297 103.866 61.0779Z" fill="#4B4B4B"/><path d="M115.235 80.9579C106.754 76.3471 90.8949 76.0798 84.8497 78.456L92.4024 87.9963C110.956 93.5383 115.235 80.9579 115.235 80.9579Z" fill="#8EE000"/><path d="M99.5712 69.6542C101.85 69.3587 103.458 67.2717 103.163 64.9926C102.867 62.7136 100.78 61.1056 98.5013 61.4011C96.2223 61.6965 94.6143 63.7836 94.9097 66.0626C95.2052 68.3416 97.2922 69.9496 99.5712 69.6542Z" fill="white"/><path fill-rule="evenodd" clip-rule="evenodd" d="M144.679 43.9216C152.107 42.9587 158.944 48.2263 159.907 55.6541L160.965 63.8155C161.928 71.2433 156.66 78.0801 149.232 79.0431C141.805 80.006 134.968 74.7384 134.005 67.3106L132.947 59.1492C131.984 51.7215 137.251 44.8846 144.679 43.9216Z" fill="white"/><path fill-rule="evenodd" clip-rule="evenodd" d="M147.061 55.4784C150.546 55.0267 153.757 57.5009 154.209 60.9855L155.112 67.9548C155.564 71.4394 153.09 74.6507 149.605 75.1024C146.12 75.5542 142.909 73.08 142.457 69.5953L141.554 62.6261C141.102 59.1414 143.576 55.9302 147.061 55.4784Z" fill="#4B4B4B"/><path d="M142.028 64.1499C144.307 63.8544 145.915 61.7674 145.62 59.4884C145.324 57.2093 143.237 55.6013 140.958 55.8968C138.679 56.1922 137.071 58.2793 137.367 60.5583C137.662 62.8373 139.749 64.4453 142.028 64.1499Z" fill="white"/><path d="M138.849 77.515C145.456 72.1589 160.041 69.3055 164.385 70.417L161.423 79.1099C144.297 88.4772 138.849 77.515 138.849 77.515Z" fill="#8EE000"/><path fill-rule="evenodd" clip-rule="evenodd" d="M123.194 70.8391C126.954 70.3517 130.476 73.0653 130.963 76.8251L132.406 87.9512C132.893 91.7109 130.179 95.233 126.42 95.7204C122.66 96.2078 119.138 93.4942 118.65 89.7344L117.208 78.6083C116.721 74.8485 119.434 71.3265 123.194 70.8391Z" fill="#F49000"/><path fill-rule="evenodd" clip-rule="evenodd" d="M122.801 71.8988C125.733 71.5187 128.479 73.6346 128.859 76.5663L129.984 85.2419C130.364 88.1735 128.248 90.9198 125.316 91.2999C122.385 91.6799 119.638 89.564 119.258 86.6323L118.134 77.9568C117.754 75.0251 119.869 72.2788 122.801 71.8988Z" fill="#DC6A01"/><path fill-rule="evenodd" clip-rule="evenodd" d="M129.807 83.8865L129.983 85.2422C130.363 88.1738 128.247 90.9201 125.315 91.3002C124.472 91.4094 123.645 91.3124 122.885 91.0491C123.904 87.7435 126.454 85.0414 129.807 83.8865Z" fill="#FFCAFF"/><path d="M113.494 78.5487C113.772 74.2235 117.403 70.5826 122.172 69.9644C126.665 69.3819 131.024 72.0802 132.384 76.0998L132.432 76.4666C132.468 76.7417 132.4 76.9369 132.113 76.8809L120.445 79.9787C120.261 80.0025 120.261 80.0025 120.078 80.0262L113.956 79.2348C113.681 79.2704 113.577 79.1906 113.542 78.9155L113.494 78.5487Z" fill="#FFC200"/><path d="M124.678 74.2081C124.495 74.2318 124.403 74.2437 124.208 74.1758C122.956 73.8718 121.856 74.0145 120.906 74.6038C120.209 74.974 119.427 74.7023 119.069 74.096C118.699 73.3981 118.971 72.6169 119.577 72.2586C121.144 71.4027 122.887 71.1769 124.804 71.581C125.573 71.761 126.035 72.447 125.855 73.2163C125.731 73.6986 125.228 74.1367 124.678 74.2081Z" fill="#FFDE00"/><path fill-rule="evenodd" clip-rule="evenodd" d="M158.135 157.27C159.289 153.951 157.523 150.302 154.204 149.148L144.772 145.868C141.453 144.714 137.804 146.48 136.65 149.799C135.496 153.118 137.262 156.767 140.581 157.921L150.013 161.201C153.332 162.355 156.981 160.589 158.135 157.27Z" fill="#F49000"/><path fill-rule="evenodd" clip-rule="evenodd" d="M85.7703 127.979C88.5946 125.889 89.1931 121.879 87.1025 119.055L81.1609 111.028C79.0704 108.204 75.0609 107.605 72.2367 109.696C69.4124 111.787 68.8139 115.796 70.9045 118.62L76.8461 126.647C78.9367 129.471 82.9461 130.07 85.7703 127.979Z" fill="#F49000"/><path fill-rule="evenodd" clip-rule="evenodd" d="M184.667 191.03L188.581 179.773C189.659 176.673 188.02 173.287 184.92 172.209L88.3826 138.642C87.994 138.507 87.5785 138.468 87.1718 138.53L64.8944 141.887C64.202 141.991 63.7252 142.637 63.8296 143.33C63.8678 143.583 63.9821 143.819 64.1573 144.007L79.5462 160.461C79.8272 160.761 80.177 160.989 80.5655 161.124L177.103 194.691C180.203 195.768 183.589 194.129 184.667 191.03Z" fill="#FFD300"/><path fill-rule="evenodd" clip-rule="evenodd" d="M68.9799 149.162L71.8754 140.835L64.8953 141.886C64.2029 141.991 63.7261 142.636 63.8305 143.329C63.8687 143.583 63.983 143.819 64.1582 144.006L68.9799 149.162Z" fill="#606060"/><path fill-rule="evenodd" clip-rule="evenodd" d="M80.0238 160.859L87.7937 138.513C87.5873 138.493 87.3785 138.498 87.1719 138.529L70.3207 141.069L67.9055 148.014L79.5463 160.46C79.689 160.613 79.8495 160.747 80.0238 160.859Z" fill="#FFD8B4"/><path fill-rule="evenodd" clip-rule="evenodd" d="M184.665 191.03L188.58 179.773C189.657 176.673 188.018 173.287 184.919 172.209L168.431 166.476L160.614 188.958L177.102 194.691C180.201 195.768 183.588 194.129 184.665 191.03Z" fill="#F5A4A4"/><path fill-rule="evenodd" clip-rule="evenodd" d="M184.666 191.028L188.58 179.771C189.077 178.342 188.996 176.853 188.461 175.556L188.13 175.441C186.143 174.751 183.972 175.801 183.281 177.788L179.28 189.296C178.589 191.283 179.64 193.454 181.627 194.145L181.957 194.261C183.181 193.576 184.169 192.457 184.666 191.028Z" fill="#F39393"/><path d="M148.912 172.287C149.189 171.49 148.792 170.621 148.022 170.303L147.935 170.27L97.0281 152.569C96.2013 152.281 95.298 152.718 95.0105 153.545C94.7333 154.342 95.13 155.211 95.9 155.53L95.9871 155.563L146.894 173.264C147.721 173.551 148.624 173.114 148.912 172.287Z" fill="#FFC000"/><path fill-rule="evenodd" clip-rule="evenodd" d="M168.458 190.701L175.666 169.969C176.076 168.79 175.238 167.428 173.795 166.926C172.352 166.424 170.85 166.973 170.44 168.151L163.231 188.884C162.822 190.062 163.659 191.424 165.102 191.926C166.546 192.428 168.048 191.879 168.458 190.701Z" fill="#C4C4C4"/><path fill-rule="evenodd" clip-rule="evenodd" d="M159.207 187.487L166.416 166.755C166.826 165.576 165.988 164.214 164.545 163.712C163.102 163.211 161.6 163.759 161.19 164.938L153.981 185.67C153.571 186.849 154.409 188.211 155.852 188.713C157.295 189.214 158.797 188.666 159.207 187.487Z" fill="#C4C4C4"/><path fill-rule="evenodd" clip-rule="evenodd" d="M163.833 189.09L171.042 168.358C171.452 167.179 170.614 165.817 169.171 165.315C167.728 164.813 166.226 165.362 165.816 166.541L158.607 187.273C158.197 188.451 159.035 189.814 160.478 190.315C161.921 190.817 163.423 190.269 163.833 189.09Z" fill="#C4C4C4"/><path d="M173.68 173.727C173.968 172.9 173.53 171.997 172.704 171.709C171.906 171.432 171.038 171.829 170.719 172.599L170.686 172.686L169.438 176.274C169.151 177.1 169.588 178.004 170.415 178.291C171.212 178.568 172.081 178.172 172.399 177.402L172.433 177.315L173.68 173.727Z" fill="#DFDFDF"/><path d="M169.055 172.116C169.343 171.289 168.905 170.386 168.079 170.098C167.281 169.821 166.413 170.218 166.094 170.988L166.061 171.075L164.813 174.663C164.526 175.49 164.963 176.393 165.79 176.68C166.587 176.958 167.456 176.561 167.774 175.791L167.808 175.704L169.055 172.116Z" fill="#DFDFDF"/><path d="M164.429 170.505C164.717 169.678 164.28 168.775 163.453 168.488C162.656 168.21 161.787 168.607 161.468 169.377L161.435 169.464L160.188 173.052C159.9 173.879 160.338 174.782 161.164 175.069C161.962 175.347 162.83 174.95 163.149 174.18L163.182 174.093L164.429 170.505Z" fill="#DFDFDF"/><path d="M56.2805 138.359C45.1775 135.148 34.9942 124.111 33.0299 106.687C31.3708 91.9722 16.8868 87.9016 6.72912 92.123" stroke="#606060" stroke-width="4" stroke-linecap="round" stroke-linejoin="round"/><path d="M5.15614 15.9177L17.1153 25.335C17.7422 25.8403 17.6983 26.8112 17.0307 27.2581C13.7795 29.4299 9.4169 29.2527 6.25486 26.7791C3.09282 24.3055 1.92011 20.1055 3.28775 16.4364C3.56556 15.6765 4.51062 15.4093 5.15614 15.9177Z" fill="#58CC02"/><path d="M30.0022 60.7878L17.8572 66.5293C17.2113 66.8257 16.4617 66.409 16.3714 65.7058C15.9351 62.2829 17.7916 58.9064 20.9898 57.3819C24.1881 55.8574 27.9673 56.5836 30.3275 59.1077C30.8185 59.6262 30.6578 60.4779 30.0022 60.7878Z" fill="#58CC02"/><path d="M52.8494 26.6927L31.8599 20.5624C30.7535 20.2255 30.2908 18.9083 30.9406 17.9546C34.1073 13.3159 40.0153 11.2106 45.5562 12.8096C51.0971 14.4087 54.9138 19.3757 55.0606 24.9986C55.0982 26.1604 53.9824 27.0236 52.8494 26.6927Z" fill="#58CC02"/></g><defs><clipPath id="clip0"><rect width="235" height="202" fill="white"/></clipPath></defs></svg>